<svg width="48" height="48" viewBox="0 0 48 48" fill="none" xmlns="http://www.w3.org/2000/svg">
<path d="M25.5001 23.5909V34.0909C25.5001 34.4887 25.3421 34.8703 25.0608 35.1516C24.7795 35.4329 24.3979 35.5909 24.0001 35.5909C23.6023 35.5909 23.2207 35.4329 22.9394 35.1516C22.6581 34.8703 22.5001 34.4887 22.5001 34.0909V23.5909C22.5001 23.1931 22.6581 22.8116 22.9394 22.5302C23.2207 22.2489 23.6023 22.0909 24.0001 22.0909C24.3979 22.0909 24.7795 22.2489 25.0608 22.5302C25.3421 22.8116 25.5001 23.1931 25.5001 23.5909ZM32.4076 23.4409L31.3576 33.9409C31.3369 34.1375 31.3552 34.3362 31.4115 34.5257C31.4678 34.7152 31.561 34.8917 31.6858 35.045C31.8105 35.1984 31.9644 35.3255 32.1385 35.4192C32.3125 35.5129 32.5034 35.5712 32.7001 35.5909C32.7507 35.5937 32.8014 35.5937 32.852 35.5909C33.2235 35.5904 33.5816 35.4521 33.857 35.2027C34.1324 34.9533 34.3054 34.6106 34.3426 34.2409L35.3926 23.7409C35.4324 23.3451 35.3133 22.9496 35.0615 22.6416C34.8098 22.3336 34.4459 22.1382 34.0501 22.0984C33.6543 22.0586 33.2588 22.1777 32.9508 22.4295C32.6428 22.6813 32.4474 23.0451 32.4076 23.4409ZM15.5926 23.4409C15.5528 23.0451 15.3574 22.6813 15.0494 22.4295C14.7414 22.1777 14.3459 22.0586 13.9501 22.0984C13.5543 22.1382 13.1904 22.3336 12.9387 22.6416C12.6869 22.9496 12.5678 23.3451 12.6076 23.7409L13.6576 34.2409C13.6949 34.6122 13.8693 34.9562 14.1466 35.2059C14.424 35.4555 14.7844 35.5928 15.1576 35.5909C15.2082 35.5937 15.2589 35.5937 15.3095 35.5909C15.5055 35.5712 15.6957 35.5131 15.8692 35.4199C16.0428 35.3267 16.1962 35.2002 16.3209 35.0477C16.4456 34.8952 16.539 34.7196 16.5958 34.531C16.6526 34.3424 16.6717 34.1444 16.652 33.9484L15.5926 23.4409ZM44.987 17.7897L42.1613 38.9884C42.0628 39.7079 41.7075 40.3675 41.1611 40.8457C40.6146 41.3239 39.9138 41.5886 39.1876 41.5909H8.8126C8.08643 41.5886 7.38556 41.3239 6.83911 40.8457C6.29265 40.3675 5.93742 39.7079 5.83885 38.9884L3.01323 17.7897C2.9849 17.5778 3.00219 17.3623 3.06395 17.1576C3.1257 16.9529 3.23049 16.7638 3.37129 16.603C3.51209 16.4421 3.68565 16.3132 3.88033 16.2249C4.07501 16.1366 4.28632 16.0909 4.5001 16.0909H12.8195L22.8751 4.60278C23.0159 4.44317 23.189 4.31534 23.3829 4.22778C23.5769 4.14022 23.7873 4.09494 24.0001 4.09494C24.2129 4.09494 24.4233 4.14022 24.6173 4.22778C24.8112 4.31534 24.9843 4.44317 25.1251 4.60278L35.1807 16.0909H43.5001C43.7139 16.0909 43.9252 16.1366 44.1199 16.2249C44.3146 16.3132 44.4881 16.4421 44.6289 16.603C44.7697 16.7638 44.8745 16.9529 44.9362 17.1576C44.998 17.3623 45.0153 17.5778 44.987 17.7897ZM16.8057 16.0909H31.1945L24.0001 7.86903L16.8057 16.0909ZM41.7863 19.0909H6.21385L8.8126 38.5909H39.1876L41.7863 19.0909Z" fill="white"/>
</svg>
