<svg width="48" height="48" viewBox="0 0 48 48" fill="none" xmlns="http://www.w3.org/2000/svg">
<path fill-rule="evenodd" clip-rule="evenodd" d="M24 5.6001C35.0282 5.6001 44 12.8811 44 21.8305C44 25.4119 42.6112 28.6379 39.713 31.8167C35.517 36.6459 26.1346 42.5285 24 43.4281C21.9244 44.3027 22.1648 42.9345 22.2598 42.3939C22.2624 42.3785 22.265 42.3639 22.2674 42.3499C22.3184 42.0491 22.553 40.6377 22.553 40.6377C22.6202 40.1269 22.69 39.3347 22.4882 38.8293C22.2642 38.2727 21.3776 37.9837 20.7264 37.8429C11.1151 36.5729 4 29.8535 4 21.8305C4 12.8811 12.9727 5.6001 24 5.6001ZM19.9444 17.5057H18.5262C18.3153 17.5057 18.1442 17.6769 18.1442 17.8876V26.6161C18.1442 26.8271 18.3153 26.9981 18.5262 26.9981H19.9444C20.1554 26.9981 20.3262 26.8271 20.3262 26.6161V17.8876C20.3262 17.6769 20.1554 17.5057 19.9444 17.5057ZM16.9437 26.6161C16.9437 26.8271 16.7727 26.9979 16.5618 26.9979H10.9428C10.732 26.9979 10.561 26.8271 10.561 26.6161V17.8877C10.561 17.6768 10.732 17.5059 10.9428 17.5059H12.3614C12.5713 17.5059 12.743 17.6776 12.743 17.8877V24.8159H16.5618C16.7718 24.8159 16.9437 24.9877 16.9437 25.1975V26.6161ZM31.7274 26.9979H37.3464C37.5574 26.9979 37.7282 26.8271 37.7282 26.6161V25.1975C37.7282 24.9877 37.5564 24.8159 37.3464 24.8159H33.5278V23.3431H37.3464C37.5574 23.3431 37.7282 23.1721 37.7282 22.9611V21.5427C37.7282 21.3327 37.5564 21.1608 37.3464 21.1608H33.5278V19.6879H37.3464C37.5574 19.6879 37.7282 19.5169 37.7282 19.306V17.8877C37.7282 17.6776 37.5564 17.5059 37.3464 17.5059H31.7274C31.5166 17.5059 31.3456 17.6768 31.3456 17.8877V26.6161C31.3456 26.8271 31.5166 26.9979 31.7274 26.9979ZM28.182 17.5057H29.6002C29.8112 17.5057 29.9822 17.6769 29.9822 17.8876V26.6161C29.9822 26.8271 29.8112 26.9981 29.6002 26.9981H28.1898C28.1552 26.9981 28.1218 26.9929 28.09 26.9845L28.0874 26.9841L28.0844 26.9833C28.0754 26.9807 28.0666 26.9777 28.058 26.9747L28.046 26.9703C28.0396 26.9679 28.0336 26.9653 28.0272 26.9623C28.021 26.9595 28.015 26.9565 28.009 26.9533C28.005 26.9515 28.0014 26.9493 27.9976 26.9473C27.9896 26.9427 27.9814 26.9379 27.9736 26.9327L27.9694 26.9297C27.932 26.9043 27.8984 26.8725 27.8708 26.8335L23.8722 21.4336V26.6161C23.8722 26.8271 23.7012 26.9981 23.4904 26.9981H22.072C21.8612 26.9981 21.6902 26.8271 21.6902 26.6161V17.8876C21.6902 17.6769 21.8612 17.5057 22.072 17.5057H23.4824C23.487 17.5057 23.4912 17.5063 23.4958 17.5065C23.5026 17.5067 23.5092 17.5068 23.516 17.5076L23.5366 17.5098L23.5528 17.5125L23.5754 17.5173L23.5892 17.5209C23.597 17.5232 23.6046 17.5256 23.6124 17.5284L23.6248 17.5329C23.6322 17.5359 23.6398 17.5391 23.647 17.5425L23.6592 17.5485C23.6664 17.552 23.6734 17.556 23.6802 17.5601L23.6918 17.567C23.699 17.5717 23.7058 17.5762 23.7122 17.5809L23.7226 17.5886C23.7298 17.5944 23.7364 17.6002 23.7432 17.6062L23.7504 17.6128C23.7584 17.6203 23.766 17.6283 23.7734 17.6366L23.7758 17.6394C23.7868 17.6518 23.7972 17.6649 23.8066 17.6787L27.8 23.0719V17.8876C27.8 17.6769 27.971 17.5057 28.182 17.5057Z" fill="#FBF8F2"/>
</svg>
